# xmcd
#
# Track frame offsets:
#	150
#	16771
#	32554
#	48393
#	63199
#	80497
#	95328
#	109807
#	124602
#	141555
#	158176
#	173959
#	189798
#	204604
#	221902
#	236733
#	251212
#	266007
#
# Disc length: 3772 seconds
#
# Revision: 1
# Processed by: cddbd v1.5.2PL0 Copyright (c) Steve Scherf et al.
# Submitted via: audiograbber 1.83.01
#
DISCID=010eba12
DTITLE=Various Artist - Country 1011-C
DYEAR=2010
DGENRE=Country
TTITLE0=Rascal Flatts - Why Wait
TTITLE1=Gretchen Wilson - I Got Your Country Right Here
TTITLE2=Dierks Bentley - Draw Me A Map
TTITLE3=Jamey Johnson - Playing The Part
TTITLE4=Mark Chesnutt - Lovin' Her Was Easier
TTITLE5=Sara Marince - In The Mean Time
TTITLE6=Jaron and The Long Road To Love - That's Beautiful To Me
TTITLE7=D.J. Miller - A Little Naughty Is Nice
TTITLE8=Flynnville Train - Preachin'  To The Choir
TTITLE9=Rascal Flatts - Why Wait-vcl
TTITLE10=Gretchen Wilson - I Got Your Country Right Here-vcl
TTITLE11=Dierks Bentley - Draw Me A Map-vcl
TTITLE12=Jamey Johnson - Playing The Part-vcl
TTITLE13=Mark Chesnutt - Lovin' Her Was Easier-vcl
TTITLE14=Sarah Marince - In The Mean Time-vcl
TTITLE15=Jaron and The Long Road To Love - That's Beautiful To Me-vcl
TTITLE16=D.J. Miller - A Little Naughty Is Nice-vcl
TTITLE17=Flynnville Train - Preachin' To The Choir-vcl
EXTD=
EXTT0=
EXTT1=
EXTT2=
EXTT3=
EXTT4=
EXTT5=
EXTT6=
EXTT7=
EXTT8=
EXTT9=
EXTT10=
EXTT11=
EXTT12=
EXTT13=
EXTT14=
EXTT15=
EXTT16=
EXTT17=
PLAYORDER=
